<svg width="88" height="16" viewBox="0 0 88 16" fill="none" xmlns="http://www.w3.org/2000/svg">
<path d="M11.9457 9.54675C11.773 9.71408 11.6937 9.95608 11.733 10.1934L12.3257 13.4734C12.3757 13.7514 12.2583 14.0327 12.0257 14.1934C11.7977 14.3601 11.4943 14.3801 11.2457 14.2467L8.29299 12.7067C8.19032 12.6521 8.07632 12.6227 7.95965 12.6194H7.77899C7.71632 12.6287 7.65499 12.6487 7.59899 12.6794L4.64565 14.2267C4.49965 14.3001 4.33432 14.3261 4.17232 14.3001C3.77765 14.2254 3.51432 13.8494 3.57899 13.4527L4.17232 10.1727C4.21165 9.93341 4.13232 9.69008 3.95965 9.52008L1.55232 7.18675C1.35099 6.99141 1.28099 6.69808 1.37299 6.43341C1.46232 6.16941 1.69032 5.97675 1.96565 5.93341L5.27899 5.45275C5.53099 5.42675 5.75232 5.27341 5.86565 5.04675L7.32565 2.05341C7.36032 1.98675 7.40499 1.92541 7.45899 1.87341L7.51899 1.82675C7.55032 1.79208 7.58632 1.76341 7.62632 1.74008L7.69899 1.71341L7.81232 1.66675H8.09299C8.34365 1.69275 8.56432 1.84275 8.67965 2.06675L10.159 5.04675C10.2657 5.26475 10.473 5.41608 10.7123 5.45275L14.0257 5.93341C14.3057 5.97341 14.5397 6.16675 14.6323 6.43341C14.7197 6.70075 14.6443 6.99408 14.439 7.18675L11.9457 9.54675Z" fill="#FDC040"/>
<path d="M29.9457 9.54675C29.773 9.71408 29.6937 9.95608 29.733 10.1934L30.3257 13.4734C30.3757 13.7514 30.2583 14.0327 30.0257 14.1934C29.7977 14.3601 29.4943 14.3801 29.2457 14.2467L26.293 12.7067C26.1903 12.6521 26.0763 12.6227 25.9597 12.6194H25.779C25.7163 12.6287 25.655 12.6487 25.599 12.6794L22.6457 14.2267C22.4997 14.3001 22.3343 14.3261 22.1723 14.3001C21.7777 14.2254 21.5143 13.8494 21.579 13.4527L22.1723 10.1727C22.2117 9.93341 22.1323 9.69008 21.9597 9.52008L19.5523 7.18675C19.351 6.99141 19.281 6.69808 19.373 6.43341C19.4623 6.16941 19.6903 5.97675 19.9657 5.93341L23.279 5.45275C23.531 5.42675 23.7523 5.27341 23.8657 5.04675L25.3257 2.05341C25.3603 1.98675 25.405 1.92541 25.459 1.87341L25.519 1.82675C25.5503 1.79208 25.5863 1.76341 25.6263 1.74008L25.699 1.71341L25.8123 1.66675H26.093C26.3437 1.69275 26.5643 1.84275 26.6797 2.06675L28.159 5.04675C28.2657 5.26475 28.473 5.41608 28.7123 5.45275L32.0257 5.93341C32.3057 5.97341 32.5397 6.16675 32.6323 6.43341C32.7197 6.70075 32.6443 6.99408 32.439 7.18675L29.9457 9.54675Z" fill="#FDC040"/>
<path d="M47.9457 9.54675C47.773 9.71408 47.6937 9.95608 47.733 10.1934L48.3257 13.4734C48.3757 13.7514 48.2583 14.0327 48.0257 14.1934C47.7977 14.3601 47.4943 14.3801 47.2457 14.2467L44.293 12.7067C44.1903 12.6521 44.0763 12.6227 43.9597 12.6194H43.779C43.7163 12.6287 43.655 12.6487 43.599 12.6794L40.6457 14.2267C40.4997 14.3001 40.3343 14.3261 40.1723 14.3001C39.7777 14.2254 39.5143 13.8494 39.579 13.4527L40.1723 10.1727C40.2117 9.93341 40.1323 9.69008 39.9597 9.52008L37.5523 7.18675C37.351 6.99141 37.281 6.69808 37.373 6.43341C37.4623 6.16941 37.6903 5.97675 37.9657 5.93341L41.279 5.45275C41.531 5.42675 41.7523 5.27341 41.8657 5.04675L43.3257 2.05341C43.3603 1.98675 43.405 1.92541 43.459 1.87341L43.519 1.82675C43.5503 1.79208 43.5863 1.76341 43.6263 1.74008L43.699 1.71341L43.8123 1.66675H44.093C44.3437 1.69275 44.5643 1.84275 44.6797 2.06675L46.159 5.04675C46.2657 5.26475 46.473 5.41608 46.7123 5.45275L50.0257 5.93341C50.3057 5.97341 50.5397 6.16675 50.6323 6.43341C50.7197 6.70075 50.6443 6.99408 50.439 7.18675L47.9457 9.54675Z" fill="#FDC040"/>
<path d="M65.9457 9.54675C65.773 9.71408 65.6937 9.95608 65.733 10.1934L66.3257 13.4734C66.3757 13.7514 66.2583 14.0327 66.0257 14.1934C65.7977 14.3601 65.4943 14.3801 65.2457 14.2467L62.293 12.7067C62.1903 12.6521 62.0763 12.6227 61.9597 12.6194H61.779C61.7163 12.6287 61.655 12.6487 61.599 12.6794L58.6457 14.2267C58.4997 14.3001 58.3343 14.3261 58.1723 14.3001C57.7777 14.2254 57.5143 13.8494 57.579 13.4527L58.1723 10.1727C58.2117 9.93341 58.1323 9.69008 57.9597 9.52008L55.5523 7.18675C55.351 6.99141 55.281 6.69808 55.373 6.43341C55.4623 6.16941 55.6903 5.97675 55.9657 5.93341L59.279 5.45275C59.531 5.42675 59.7523 5.27341 59.8657 5.04675L61.3257 2.05341C61.3603 1.98675 61.405 1.92541 61.459 1.87341L61.519 1.82675C61.5503 1.79208 61.5863 1.76341 61.6263 1.74008L61.699 1.71341L61.8123 1.66675H62.093C62.3437 1.69275 62.5643 1.84275 62.6797 2.06675L64.159 5.04675C64.2657 5.26475 64.473 5.41608 64.7123 5.45275L68.0257 5.93341C68.3057 5.97341 68.5397 6.16675 68.6323 6.43341C68.7197 6.70075 68.6443 6.99408 68.439 7.18675L65.9457 9.54675Z" fill="#FDC040"/>
<path d="M83.9457 9.54675C83.773 9.71408 83.6937 9.95608 83.733 10.1934L84.3257 13.4734C84.3757 13.7514 84.2583 14.0327 84.0257 14.1934C83.7977 14.3601 83.4943 14.3801 83.2457 14.2467L80.293 12.7067C80.1903 12.6521 80.0763 12.6227 79.9597 12.6194H79.779C79.7163 12.6287 79.655 12.6487 79.599 12.6794L76.6457 14.2267C76.4997 14.3001 76.3343 14.3261 76.1723 14.3001C75.7777 14.2254 75.5143 13.8494 75.579 13.4527L76.1723 10.1727C76.2117 9.93341 76.1323 9.69008 75.9597 9.52008L73.5523 7.18675C73.351 6.99141 73.281 6.69808 73.373 6.43341C73.4623 6.16941 73.6903 5.97675 73.9657 5.93341L77.279 5.45275C77.531 5.42675 77.7523 5.27341 77.8657 5.04675L79.3257 2.05341C79.3603 1.98675 79.405 1.92541 79.459 1.87341L79.519 1.82675C79.5503 1.79208 79.5863 1.76341 79.6263 1.74008L79.699 1.71341L79.8123 1.66675H80.093C80.3437 1.69275 80.5643 1.84275 80.6797 2.06675L82.159 5.04675C82.2657 5.26475 82.473 5.41608 82.7123 5.45275L86.0257 5.93341C86.3057 5.97341 86.5397 6.16675 86.6323 6.43341C86.7197 6.70075 86.6443 6.99408 86.439 7.18675L83.9457 9.54675Z" fill="#D5D5D5"/>
</svg>
