<svg width="100" height="44" viewBox="0 0 100 44" fill="none" xmlns="http://www.w3.org/2000/svg">
<path d="M8.505 21.21C7.441 21.21 6.447 21.014 5.523 20.622C4.599 20.23 3.787 19.691 3.087 19.005C2.387 18.305 1.834 17.5 1.428 16.59C1.036 15.68 0.84 14.7 0.84 13.65C0.84 12.6 1.036 11.62 1.428 10.71C1.834 9.8 2.387 9.002 3.087 8.316C3.787 7.616 4.599 7.07 5.523 6.678C6.447 6.286 7.441 6.09 8.505 6.09C9.163 6.09 9.8 6.16 10.416 6.3C11.032 6.44 11.599 6.65 12.117 6.93C12.327 7.042 12.481 7.196 12.579 7.392C12.691 7.574 12.747 7.763 12.747 7.959C12.747 8.295 12.635 8.596 12.411 8.862C12.187 9.128 11.9 9.261 11.55 9.261C11.438 9.261 11.319 9.247 11.193 9.219C11.081 9.191 10.969 9.149 10.857 9.093C10.507 8.939 10.136 8.82 9.744 8.736C9.352 8.652 8.939 8.61 8.505 8.61C7.595 8.61 6.762 8.841 6.006 9.303C5.264 9.751 4.669 10.36 4.221 11.13C3.787 11.886 3.57 12.726 3.57 13.65C3.57 14.56 3.787 15.4 4.221 16.17C4.669 16.94 5.264 17.556 6.006 18.018C6.762 18.466 7.595 18.69 8.505 18.69C8.925 18.69 9.387 18.648 9.891 18.564C10.395 18.48 10.808 18.368 11.13 18.228L10.941 18.858V15.267L11.298 15.582H8.967C8.603 15.582 8.295 15.463 8.043 15.225C7.805 14.987 7.686 14.686 7.686 14.322C7.686 13.958 7.805 13.657 8.043 13.419C8.295 13.181 8.603 13.062 8.967 13.062H12.411C12.775 13.062 13.076 13.188 13.314 13.44C13.552 13.678 13.671 13.979 13.671 14.343V18.795C13.671 19.075 13.601 19.306 13.461 19.488C13.335 19.67 13.188 19.817 13.02 19.929C12.376 20.321 11.669 20.636 10.899 20.874C10.143 21.098 9.345 21.21 8.505 21.21ZM17.2471 21C16.8831 21 16.5821 20.881 16.3441 20.643C16.1061 20.391 15.9871 20.083 15.9871 19.719V11.046C15.9871 10.682 16.1061 10.381 16.3441 10.143C16.5821 9.891 16.8831 9.765 17.2471 9.765C17.6111 9.765 17.9121 9.891 18.1501 10.143C18.3881 10.381 18.5071 10.682 18.5071 11.046V13.02L18.3601 11.613C18.5141 11.277 18.7101 10.983 18.9481 10.731C19.2001 10.465 19.4801 10.248 19.7881 10.08C20.0961 9.898 20.4251 9.765 20.7751 9.681C21.1251 9.597 21.4751 9.555 21.8251 9.555C22.2451 9.555 22.5951 9.674 22.8751 9.912C23.1691 10.15 23.3161 10.43 23.3161 10.752C23.3161 11.214 23.1971 11.55 22.9591 11.76C22.7211 11.956 22.4621 12.054 22.1821 12.054C21.9161 12.054 21.6711 12.005 21.4471 11.907C21.2371 11.809 20.9921 11.76 20.7121 11.76C20.4601 11.76 20.2011 11.823 19.9351 11.949C19.6831 12.061 19.4451 12.243 19.2211 12.495C19.0111 12.747 18.8361 13.062 18.6961 13.44C18.5701 13.804 18.5071 14.238 18.5071 14.742V19.719C18.5071 20.083 18.3881 20.391 18.1501 20.643C17.9121 20.881 17.6111 21 17.2471 21ZM35.5199 15.393C35.5199 16.541 35.2609 17.556 34.7429 18.438C34.2389 19.306 33.5529 19.985 32.6849 20.475C31.8309 20.965 30.8719 21.21 29.8079 21.21C28.7439 21.21 27.7779 20.965 26.9099 20.475C26.0559 19.985 25.3699 19.306 24.8519 18.438C24.3479 17.556 24.0959 16.541 24.0959 15.393C24.0959 14.245 24.3479 13.237 24.8519 12.369C25.3699 11.487 26.0559 10.801 26.9099 10.311C27.7779 9.807 28.7439 9.555 29.8079 9.555C30.8719 9.555 31.8309 9.807 32.6849 10.311C33.5529 10.801 34.2389 11.487 34.7429 12.369C35.2609 13.237 35.5199 14.245 35.5199 15.393ZM32.9999 15.393C32.9999 14.679 32.8529 14.063 32.5589 13.545C32.2789 13.013 31.8939 12.6 31.4039 12.306C30.9279 12.012 30.3959 11.865 29.8079 11.865C29.2199 11.865 28.6809 12.012 28.1909 12.306C27.7149 12.6 27.3299 13.013 27.0359 13.545C26.7559 14.063 26.6159 14.679 26.6159 15.393C26.6159 16.093 26.7559 16.709 27.0359 17.241C27.3299 17.759 27.7149 18.165 28.1909 18.459C28.6809 18.753 29.2199 18.9 29.8079 18.9C30.3959 18.9 30.9279 18.753 31.4039 18.459C31.8939 18.165 32.2789 17.759 32.5589 17.241C32.8529 16.709 32.9999 16.093 32.9999 15.393ZM42.7234 9.555C43.5214 9.555 44.2144 9.639 44.8024 9.807C45.4044 9.975 45.8664 10.213 46.1884 10.521C46.5244 10.815 46.6924 11.172 46.6924 11.592C46.6924 11.872 46.6084 12.138 46.4404 12.39C46.2724 12.628 46.0274 12.747 45.7054 12.747C45.4814 12.747 45.2924 12.719 45.1384 12.663C44.9984 12.593 44.8724 12.509 44.7604 12.411C44.6484 12.313 44.5154 12.222 44.3614 12.138C44.2214 12.054 44.0044 11.991 43.7104 11.949C43.4304 11.893 43.2204 11.865 43.0804 11.865C42.3664 11.865 41.7574 12.019 41.2534 12.327C40.7634 12.635 40.3854 13.055 40.1194 13.587C39.8534 14.105 39.7204 14.707 39.7204 15.393C39.7204 16.065 39.8534 16.667 40.1194 17.199C40.3994 17.717 40.7774 18.13 41.2534 18.438C41.7434 18.746 42.3034 18.9 42.9334 18.9C43.2834 18.9 43.5844 18.879 43.8364 18.837C44.0884 18.795 44.2984 18.732 44.4664 18.648C44.6624 18.536 44.8374 18.417 44.9914 18.291C45.1454 18.165 45.3764 18.102 45.6844 18.102C46.0484 18.102 46.3284 18.221 46.5244 18.459C46.7204 18.683 46.8184 18.963 46.8184 19.299C46.8184 19.649 46.6224 19.971 46.2304 20.265C45.8384 20.545 45.3204 20.776 44.6764 20.958C44.0464 21.126 43.3604 21.21 42.6184 21.21C41.5124 21.21 40.5534 20.958 39.7414 20.454C38.9294 19.936 38.2994 19.236 37.8514 18.354C37.4174 17.472 37.2004 16.485 37.2004 15.393C37.2004 14.245 37.4314 13.237 37.8934 12.369C38.3694 11.487 39.0204 10.801 39.8464 10.311C40.6864 9.807 41.6454 9.555 42.7234 9.555ZM53.9275 21.21C52.7375 21.21 51.7015 20.965 50.8195 20.475C49.9515 19.971 49.2795 19.292 48.8035 18.438C48.3415 17.584 48.1105 16.618 48.1105 15.54C48.1105 14.28 48.3625 13.209 48.8665 12.327C49.3845 11.431 50.0565 10.745 50.8825 10.269C51.7085 9.793 52.5835 9.555 53.5075 9.555C54.2215 9.555 54.8935 9.702 55.5235 9.996C56.1675 10.29 56.7345 10.696 57.2245 11.214C57.7145 11.718 58.0995 12.306 58.3795 12.978C58.6735 13.65 58.8205 14.364 58.8205 15.12C58.8065 15.456 58.6735 15.729 58.4215 15.939C58.1695 16.149 57.8755 16.254 57.5395 16.254H49.5175L48.8875 14.154H56.5945L56.1325 14.574V14.007C56.1045 13.601 55.9575 13.237 55.6915 12.915C55.4395 12.593 55.1175 12.341 54.7255 12.159C54.3475 11.963 53.9415 11.865 53.5075 11.865C53.0875 11.865 52.6955 11.921 52.3315 12.033C51.9675 12.145 51.6525 12.334 51.3865 12.6C51.1205 12.866 50.9105 13.223 50.7565 13.671C50.6025 14.119 50.5255 14.686 50.5255 15.372C50.5255 16.128 50.6795 16.772 50.9875 17.304C51.3095 17.822 51.7155 18.221 52.2055 18.501C52.7095 18.767 53.2415 18.9 53.8015 18.9C54.3195 18.9 54.7325 18.858 55.0405 18.774C55.3485 18.69 55.5935 18.592 55.7755 18.48C55.9715 18.354 56.1465 18.249 56.3005 18.165C56.5525 18.039 56.7905 17.976 57.0145 17.976C57.3225 17.976 57.5745 18.081 57.7705 18.291C57.9805 18.501 58.0855 18.746 58.0855 19.026C58.0855 19.404 57.8895 19.747 57.4975 20.055C57.1335 20.363 56.6225 20.636 55.9645 20.874C55.3065 21.098 54.6275 21.21 53.9275 21.21ZM69.2567 9.765C69.6207 9.765 69.9217 9.891 70.1597 10.143C70.3977 10.381 70.5167 10.682 70.5167 11.046V19.971C70.5167 21.259 70.2717 22.281 69.7817 23.037C69.3057 23.807 68.6617 24.36 67.8497 24.696C67.0377 25.032 66.1277 25.2 65.1197 25.2C64.6717 25.2 64.1957 25.165 63.6917 25.095C63.1877 25.025 62.7747 24.92 62.4527 24.78C62.0327 24.598 61.7387 24.367 61.5707 24.087C61.4167 23.821 61.3887 23.534 61.4867 23.226C61.6127 22.82 61.8157 22.54 62.0957 22.386C62.3757 22.246 62.6697 22.232 62.9777 22.344C63.2017 22.414 63.4957 22.519 63.8597 22.659C64.2237 22.813 64.6437 22.89 65.1197 22.89C65.7637 22.89 66.2957 22.799 66.7157 22.617C67.1497 22.449 67.4717 22.155 67.6817 21.735C67.9057 21.329 68.0177 20.769 68.0177 20.055V18.648L68.4587 19.152C68.2207 19.614 67.9197 19.999 67.5557 20.307C67.2057 20.601 66.7857 20.825 66.2957 20.979C65.8057 21.133 65.2457 21.21 64.6157 21.21C63.8737 21.21 63.2227 21.042 62.6627 20.706C62.1167 20.356 61.6897 19.88 61.3817 19.278C61.0737 18.662 60.9197 17.962 60.9197 17.178V11.046C60.9197 10.682 61.0387 10.381 61.2767 10.143C61.5147 9.891 61.8157 9.765 62.1797 9.765C62.5437 9.765 62.8447 9.891 63.0827 10.143C63.3207 10.381 63.4397 10.682 63.4397 11.046V16.422C63.4397 17.332 63.6357 17.976 64.0277 18.354C64.4337 18.718 64.9937 18.9 65.7077 18.9C66.1977 18.9 66.6107 18.809 66.9467 18.627C67.2827 18.431 67.5417 18.151 67.7237 17.787C67.9057 17.409 67.9967 16.954 67.9967 16.422V11.046C67.9967 10.682 68.1157 10.381 68.3537 10.143C68.5917 9.891 68.8927 9.765 69.2567 9.765ZM75.6179 19.719C75.6179 20.083 75.4989 20.391 75.2609 20.643C75.0229 20.881 74.7219 21 74.3579 21C73.9939 21 73.6929 20.881 73.4549 20.643C73.2169 20.391 73.0979 20.083 73.0979 19.719V11.046C73.0979 10.682 73.2169 10.381 73.4549 10.143C73.6929 9.891 73.9939 9.765 74.3579 9.765C74.7219 9.765 75.0229 9.891 75.2609 10.143C75.4989 10.381 75.6179 10.682 75.6179 11.046V19.719ZM74.3369 8.4C73.8609 8.4 73.5249 8.323 73.3289 8.169C73.1329 8.015 73.0349 7.742 73.0349 7.35V6.951C73.0349 6.545 73.1399 6.272 73.3499 6.132C73.5739 5.978 73.9099 5.901 74.3579 5.901C74.8479 5.901 75.1909 5.978 75.3869 6.132C75.5829 6.286 75.6809 6.559 75.6809 6.951V7.35C75.6809 7.756 75.5759 8.036 75.3659 8.19C75.1559 8.33 74.8129 8.4 74.3369 8.4ZM77.5568 19.257C77.4168 19.061 77.3538 18.809 77.3678 18.501C77.3818 18.193 77.5638 17.927 77.9138 17.703C78.1378 17.563 78.3758 17.507 78.6278 17.535C78.8798 17.549 79.1248 17.675 79.3628 17.913C79.7688 18.319 80.1958 18.634 80.6438 18.858C81.0918 19.082 81.6518 19.194 82.3238 19.194C82.5338 19.18 82.7648 19.152 83.0168 19.11C83.2688 19.054 83.4858 18.942 83.6678 18.774C83.8638 18.592 83.9618 18.319 83.9618 17.955C83.9618 17.647 83.8568 17.402 83.6468 17.22C83.4368 17.038 83.1568 16.884 82.8068 16.758C82.4708 16.632 82.0928 16.513 81.6728 16.401C81.2388 16.275 80.7908 16.135 80.3288 15.981C79.8808 15.827 79.4678 15.631 79.0898 15.393C78.7118 15.141 78.4038 14.812 78.1658 14.406C77.9278 14 77.8088 13.489 77.8088 12.873C77.8088 12.173 78.0048 11.578 78.3968 11.088C78.7888 10.598 79.2928 10.22 79.9088 9.954C80.5388 9.688 81.1968 9.555 81.8828 9.555C82.3168 9.555 82.7718 9.611 83.2478 9.723C83.7238 9.821 84.1788 9.989 84.6128 10.227C85.0468 10.451 85.4108 10.752 85.7048 11.13C85.8588 11.34 85.9498 11.592 85.9778 11.886C86.0058 12.18 85.8728 12.446 85.5788 12.684C85.3688 12.852 85.1238 12.929 84.8438 12.915C84.5638 12.887 84.3328 12.789 84.1508 12.621C83.9128 12.313 83.5908 12.068 83.1848 11.886C82.7928 11.704 82.3378 11.613 81.8198 11.613C81.6098 11.613 81.3788 11.641 81.1268 11.697C80.8888 11.739 80.6788 11.844 80.4968 12.012C80.3148 12.166 80.2238 12.418 80.2238 12.768C80.2238 13.09 80.3288 13.349 80.5388 13.545C80.7488 13.727 81.0288 13.881 81.3788 14.007C81.7428 14.119 82.1278 14.231 82.5338 14.343C82.9538 14.455 83.3808 14.588 83.8148 14.742C84.2488 14.896 84.6478 15.099 85.0118 15.351C85.3758 15.603 85.6698 15.932 85.8938 16.338C86.1178 16.73 86.2298 17.234 86.2298 17.85C86.2298 18.564 86.0198 19.173 85.5998 19.677C85.1798 20.181 84.6548 20.566 84.0248 20.832C83.3948 21.084 82.7508 21.21 82.0928 21.21C81.2668 21.21 80.4408 21.07 79.6148 20.79C78.7888 20.496 78.1028 19.985 77.5568 19.257ZM94.2396 9.555C95.2476 9.555 96.0106 9.772 96.5286 10.206C97.0606 10.64 97.4246 11.221 97.6206 11.949C97.8166 12.663 97.9146 13.461 97.9146 14.343V19.719C97.9146 20.083 97.7956 20.391 97.5576 20.643C97.3196 20.881 97.0186 21 96.6546 21C96.2906 21 95.9896 20.881 95.7516 20.643C95.5136 20.391 95.3946 20.083 95.3946 19.719V14.343C95.3946 13.881 95.3386 13.468 95.2266 13.104C95.1146 12.726 94.9116 12.425 94.6176 12.201C94.3236 11.977 93.9036 11.865 93.3576 11.865C92.8256 11.865 92.3706 11.977 91.9926 12.201C91.6146 12.425 91.3276 12.726 91.1316 13.104C90.9496 13.468 90.8586 13.881 90.8586 14.343V19.719C90.8586 20.083 90.7396 20.391 90.5016 20.643C90.2636 20.881 89.9626 21 89.5986 21C89.2346 21 88.9336 20.881 88.6956 20.643C88.4576 20.391 88.3386 20.083 88.3386 19.719V6.741C88.3386 6.377 88.4576 6.076 88.6956 5.838C88.9336 5.586 89.2346 5.46 89.5986 5.46C89.9626 5.46 90.2636 5.586 90.5016 5.838C90.7396 6.076 90.8586 6.377 90.8586 6.741V11.949L90.5436 11.886C90.6696 11.648 90.8446 11.396 91.0686 11.13C91.2926 10.85 91.5656 10.591 91.8876 10.353C92.2096 10.115 92.5666 9.926 92.9586 9.786C93.3506 9.632 93.7776 9.555 94.2396 9.555Z" fill="#3BB77E"/>
<path d="M5.698 40.14C4.97933 40.14 4.312 40.014 3.696 39.762C3.08933 39.5007 2.55267 39.1413 2.086 38.684C1.62867 38.2267 1.26933 37.6947 1.008 37.088C0.756 36.472 0.63 35.8093 0.63 35.1C0.63 34.3813 0.756 33.7187 1.008 33.112C1.26933 32.496 1.62867 31.9593 2.086 31.502C2.55267 31.0447 3.08933 30.69 3.696 30.438C4.312 30.186 4.97933 30.06 5.698 30.06C6.174 30.06 6.63133 30.116 7.07 30.228C7.518 30.3307 7.924 30.494 8.288 30.718C8.38133 30.7647 8.44667 30.83 8.484 30.914C8.53067 30.998 8.554 31.0867 8.554 31.18C8.554 31.3387 8.498 31.474 8.386 31.586C8.28333 31.698 8.162 31.754 8.022 31.754C7.966 31.754 7.91 31.7447 7.854 31.726C7.80733 31.7073 7.756 31.6887 7.7 31.67C7.41067 31.5207 7.098 31.404 6.762 31.32C6.426 31.2267 6.07133 31.18 5.698 31.18C4.96067 31.18 4.298 31.3527 3.71 31.698C3.13133 32.0433 2.674 32.51 2.338 33.098C2.002 33.686 1.834 34.3533 1.834 35.1C1.834 35.8373 2.002 36.5047 2.338 37.102C2.674 37.69 3.13133 38.1567 3.71 38.502C4.298 38.8473 4.96067 39.02 5.698 39.02C6.07133 39.02 6.454 38.9687 6.846 38.866C7.24733 38.7633 7.588 38.6327 7.868 38.474L7.77 38.81V35.856L7.994 36.052H5.852C5.69333 36.052 5.558 36.0007 5.446 35.898C5.34333 35.786 5.292 35.6507 5.292 35.492C5.292 35.3333 5.34333 35.2027 5.446 35.1C5.558 34.988 5.69333 34.932 5.852 34.932H8.4C8.568 34.932 8.70333 34.988 8.806 35.1C8.90867 35.212 8.96 35.3473 8.96 35.506V38.74C8.96 38.852 8.932 38.95 8.876 39.034C8.82933 39.118 8.764 39.188 8.68 39.244C8.26 39.5147 7.79333 39.734 7.28 39.902C6.776 40.0607 6.24867 40.14 5.698 40.14ZM11.6104 40C11.433 40 11.279 39.944 11.1484 39.832C11.027 39.72 10.9664 39.5847 10.9664 39.426V30.76C10.9664 30.6013 11.0177 30.4707 11.1204 30.368C11.2324 30.256 11.3677 30.2 11.5264 30.2H15.3904C15.913 30.2 16.3844 30.3213 16.8044 30.564C17.2244 30.7973 17.5557 31.124 17.7984 31.544C18.0504 31.9547 18.1764 32.4307 18.1764 32.972C18.1764 33.364 18.1017 33.7327 17.9524 34.078C17.803 34.414 17.5977 34.708 17.3364 34.96C17.075 35.2027 16.7764 35.3893 16.4404 35.52L16.1324 35.296C16.4497 35.3707 16.7344 35.506 16.9864 35.702C17.2384 35.8887 17.4437 36.1313 17.6024 36.43C17.761 36.7193 17.845 37.06 17.8544 37.452C17.873 37.7973 17.8964 38.0727 17.9244 38.278C17.9524 38.4833 17.9944 38.6467 18.0504 38.768C18.1064 38.88 18.1857 38.9687 18.2884 39.034C18.419 39.118 18.503 39.23 18.5404 39.37C18.587 39.51 18.5637 39.6453 18.4704 39.776C18.4144 39.86 18.335 39.9207 18.2324 39.958C18.1297 39.986 18.027 39.9953 17.9244 39.986C17.8217 39.9767 17.733 39.9487 17.6584 39.902C17.509 39.818 17.3644 39.6967 17.2244 39.538C17.0844 39.37 16.9677 39.132 16.8744 38.824C16.781 38.516 16.7344 38.096 16.7344 37.564C16.7344 37.2653 16.6877 37.018 16.5944 36.822C16.501 36.626 16.375 36.4673 16.2164 36.346C16.0577 36.2247 15.8804 36.1407 15.6844 36.094C15.4884 36.0473 15.2877 36.024 15.0824 36.024H11.9604L12.1284 35.772V39.426C12.1284 39.5847 12.0817 39.72 11.9884 39.832C11.895 39.944 11.769 40 11.6104 40ZM11.9604 35.016H15.3904C15.661 34.9973 15.913 34.904 16.1464 34.736C16.389 34.568 16.585 34.3347 16.7344 34.036C16.893 33.728 16.9724 33.3827 16.9724 33C16.9724 32.5053 16.8137 32.0947 16.4964 31.768C16.1884 31.4413 15.7964 31.278 15.3204 31.278H12.0164L12.1284 31.012V35.268L11.9604 35.016ZM29.1246 35.1C29.1246 35.8187 29.0079 36.486 28.7746 37.102C28.5413 37.7087 28.2146 38.2407 27.7946 38.698C27.3746 39.1553 26.8753 39.51 26.2966 39.762C25.7179 40.014 25.0879 40.14 24.4066 40.14C23.7159 40.14 23.0813 40.014 22.5026 39.762C21.9333 39.51 21.4386 39.1553 21.0186 38.698C20.5986 38.2407 20.2719 37.7087 20.0386 37.102C19.8053 36.486 19.6886 35.8187 19.6886 35.1C19.6886 34.372 19.8053 33.7047 20.0386 33.098C20.2719 32.482 20.5986 31.95 21.0186 31.502C21.4386 31.0447 21.9333 30.69 22.5026 30.438C23.0813 30.186 23.7159 30.06 24.4066 30.06C25.0879 30.06 25.7179 30.186 26.2966 30.438C26.8753 30.69 27.3746 31.0447 27.7946 31.502C28.2146 31.95 28.5413 32.482 28.7746 33.098C29.0079 33.7047 29.1246 34.372 29.1246 35.1ZM27.9206 35.1C27.9206 34.3347 27.7666 33.658 27.4586 33.07C27.1599 32.482 26.7493 32.02 26.2266 31.684C25.7039 31.348 25.0973 31.18 24.4066 31.18C23.7159 31.18 23.1046 31.348 22.5726 31.684C22.0499 32.02 21.6393 32.482 21.3406 33.07C21.0419 33.658 20.8926 34.3347 20.8926 35.1C20.8926 35.856 21.0419 36.5327 21.3406 37.13C21.6393 37.718 22.0499 38.18 22.5726 38.516C23.1046 38.852 23.7159 39.02 24.4066 39.02C25.0973 39.02 25.7039 38.852 26.2266 38.516C26.7493 38.18 27.1599 37.718 27.4586 37.13C27.7666 36.5327 27.9206 35.856 27.9206 35.1ZM38.038 30.844C38.1967 30.928 38.2853 31.054 38.304 31.222C38.332 31.39 38.29 31.544 38.178 31.684C38.094 31.8053 37.9867 31.8707 37.856 31.88C37.7253 31.8893 37.5947 31.8613 37.464 31.796C37.156 31.6093 36.8247 31.4647 36.47 31.362C36.1153 31.25 35.742 31.194 35.35 31.194C34.7993 31.194 34.2953 31.292 33.838 31.488C33.3807 31.6747 32.984 31.9407 32.648 32.286C32.312 32.6313 32.0507 33.042 31.864 33.518C31.6773 33.994 31.584 34.5213 31.584 35.1C31.584 35.716 31.682 36.2667 31.878 36.752C32.074 37.2373 32.34 37.6527 32.676 37.998C33.0213 38.334 33.418 38.5907 33.866 38.768C34.3233 38.9453 34.818 39.034 35.35 39.034C35.7327 39.034 36.1013 38.9827 36.456 38.88C36.8107 38.7773 37.1467 38.628 37.464 38.432C37.5947 38.3667 37.7253 38.3433 37.856 38.362C37.9867 38.3807 38.0987 38.446 38.192 38.558C38.304 38.7073 38.346 38.866 38.318 39.034C38.29 39.1927 38.2013 39.3093 38.052 39.384C37.8187 39.524 37.5527 39.6547 37.254 39.776C36.9553 39.888 36.6427 39.9767 36.316 40.042C35.9987 40.1073 35.6767 40.14 35.35 40.14C34.678 40.14 34.0433 40.0233 33.446 39.79C32.8487 39.5567 32.3213 39.2207 31.864 38.782C31.4067 38.3433 31.0427 37.816 30.772 37.2C30.5107 36.5747 30.38 35.8747 30.38 35.1C30.38 34.372 30.506 33.7047 30.758 33.098C31.01 32.4913 31.36 31.964 31.808 31.516C32.2653 31.068 32.7927 30.718 33.39 30.466C33.9967 30.214 34.65 30.088 35.35 30.088C35.8353 30.088 36.3067 30.1533 36.764 30.284C37.2307 30.4147 37.6553 30.6013 38.038 30.844ZM40.5654 30.2H45.5494C45.7081 30.2 45.8434 30.2513 45.9554 30.354C46.0674 30.4567 46.1234 30.5873 46.1234 30.746C46.1234 30.9047 46.0674 31.0353 45.9554 31.138C45.8434 31.2313 45.7081 31.278 45.5494 31.278H41.0414L41.1674 31.04V34.582L41.0274 34.428H44.9194C45.0781 34.428 45.2134 34.4793 45.3254 34.582C45.4374 34.6847 45.4934 34.8153 45.4934 34.974C45.4934 35.1327 45.4374 35.2633 45.3254 35.366C45.2134 35.4593 45.0781 35.506 44.9194 35.506H41.0694L41.1674 35.38V39.006L41.0834 38.908H45.5494C45.7081 38.908 45.8434 38.964 45.9554 39.076C46.0674 39.188 46.1234 39.314 46.1234 39.454C46.1234 39.6127 46.0674 39.7433 45.9554 39.846C45.8434 39.9487 45.7081 40 45.5494 40H40.5654C40.4068 40 40.2714 39.944 40.1594 39.832C40.0568 39.72 40.0054 39.5847 40.0054 39.426V30.76C40.0054 30.6013 40.0568 30.4707 40.1594 30.368C40.2714 30.256 40.4068 30.2 40.5654 30.2ZM48.6338 40C48.4565 40 48.3025 39.944 48.1718 39.832C48.0505 39.72 47.9898 39.5847 47.9898 39.426V30.76C47.9898 30.6013 48.0411 30.4707 48.1438 30.368C48.2558 30.256 48.3911 30.2 48.5498 30.2H52.4138C52.9365 30.2 53.4078 30.3213 53.8278 30.564C54.2478 30.7973 54.5791 31.124 54.8218 31.544C55.0738 31.9547 55.1998 32.4307 55.1998 32.972C55.1998 33.364 55.1251 33.7327 54.9758 34.078C54.8265 34.414 54.6211 34.708 54.3598 34.96C54.0985 35.2027 53.7998 35.3893 53.4638 35.52L53.1558 35.296C53.4731 35.3707 53.7578 35.506 54.0098 35.702C54.2618 35.8887 54.4671 36.1313 54.6258 36.43C54.7845 36.7193 54.8685 37.06 54.8778 37.452C54.8965 37.7973 54.9198 38.0727 54.9478 38.278C54.9758 38.4833 55.0178 38.6467 55.0738 38.768C55.1298 38.88 55.2091 38.9687 55.3118 39.034C55.4425 39.118 55.5265 39.23 55.5638 39.37C55.6105 39.51 55.5871 39.6453 55.4938 39.776C55.4378 39.86 55.3585 39.9207 55.2558 39.958C55.1531 39.986 55.0505 39.9953 54.9478 39.986C54.8451 39.9767 54.7565 39.9487 54.6818 39.902C54.5325 39.818 54.3878 39.6967 54.2478 39.538C54.1078 39.37 53.9911 39.132 53.8978 38.824C53.8045 38.516 53.7578 38.096 53.7578 37.564C53.7578 37.2653 53.7111 37.018 53.6178 36.822C53.5245 36.626 53.3985 36.4673 53.2398 36.346C53.0811 36.2247 52.9038 36.1407 52.7078 36.094C52.5118 36.0473 52.3111 36.024 52.1058 36.024H48.9838L49.1518 35.772V39.426C49.1518 39.5847 49.1051 39.72 49.0118 39.832C48.9185 39.944 48.7925 40 48.6338 40ZM48.9838 35.016H52.4138C52.6845 34.9973 52.9365 34.904 53.1698 34.736C53.4125 34.568 53.6085 34.3347 53.7578 34.036C53.9165 33.728 53.9958 33.3827 53.9958 33C53.9958 32.5053 53.8371 32.0947 53.5198 31.768C53.2118 31.4413 52.8198 31.278 52.3438 31.278H49.0398L49.1518 31.012V35.268L48.9838 35.016ZM63.1413 30.144C63.3 30.144 63.4306 30.2047 63.5333 30.326C63.6453 30.438 63.7013 30.5687 63.7013 30.718C63.7013 30.774 63.692 30.8347 63.6733 30.9C63.664 30.956 63.6406 31.012 63.6033 31.068L60.3553 35.59L60.5373 34.904V39.426C60.5373 39.5847 60.4813 39.72 60.3693 39.832C60.2666 39.944 60.1406 40 59.9913 40C59.8233 40 59.6833 39.944 59.5713 39.832C59.4686 39.72 59.4173 39.5847 59.4173 39.426V35.016L59.5153 35.38L56.3653 31.124C56.3093 31.0493 56.2673 30.9793 56.2393 30.914C56.2206 30.8393 56.2113 30.7693 56.2113 30.704C56.2113 30.5453 56.2766 30.4147 56.4073 30.312C56.538 30.2 56.6686 30.144 56.7993 30.144C56.986 30.144 57.14 30.2327 57.2613 30.41L60.1593 34.386L59.8933 34.344L62.6793 30.424C62.8006 30.2373 62.9546 30.144 63.1413 30.144Z" fill="#ADADAD"/>
</svg>
